<svg width="98" height="48" viewBox="0 0 98 48" fill="none" xmlns="http://www.w3.org/2000/svg">
<g style="mix-blend-mode:multiply" clip-path="url(#clip0_1_59)">
<path fill-rule="evenodd" clip-rule="evenodd" d="M30.3096 0.752583C29.7558 0.228945 29.0529 -0.120147 25.5597 0.0980358C22.0666 0.338037 15.7832 1.14531 11.5871 2.10532C7.41238 3.06532 5.32501 4.17805 3.72753 5.20351C2.15135 6.22896 1.06507 7.12351 0.511277 8.58534C-0.0212164 10.0253 -0.0212163 12.0108 0.0213831 13.0799C0.0639825 14.1272 0.170481 14.2799 0.894671 14.0835C1.59756 13.8872 2.93944 13.3199 3.79143 13.1672C4.62212 13.0144 4.98422 13.2763 5.34631 13.2326C5.70841 13.1672 6.1131 12.8181 6.39 12.7744C6.66689 12.709 6.81599 12.9708 6.92249 14.0181C7.05029 15.0435 7.15679 16.8763 7.19939 17.7926C7.26329 18.709 7.26329 18.709 9.13766 18.4908C11.012 18.2945 14.7821 17.9017 16.6778 17.749C18.5521 17.5963 18.5521 17.6835 18.5734 18.5781C18.5947 19.4726 18.6586 21.1308 18.4456 22.0472C18.2539 22.9636 17.8066 23.1163 17.7001 24.0108C17.6149 24.8836 17.8492 26.5199 17.9344 27.4799C17.9983 28.4399 17.9131 28.7454 16.1027 29.0072C14.2922 29.269 10.7777 29.4654 8.98856 29.64C7.19939 29.8145 7.15679 29.9672 7.15679 30.949C7.15679 31.9527 7.19939 33.7854 6.98639 34.68C6.75209 35.5963 6.2622 35.5963 5.30371 35.8582C4.32393 36.12 2.89684 36.6218 1.89576 36.9272C0.915971 37.2327 0.362179 37.32 0.191781 37.9963C0.0213831 38.6509 0.213081 39.8727 0.447377 41.2036C0.660375 42.5564 0.915971 44.0182 1.59756 45.1091C2.30045 46.2 3.42934 46.92 4.79252 47.3782C6.1557 47.8364 7.75318 48.0327 9.39326 47.9673C11.012 47.88 12.6947 47.5309 14.6543 47.2255C16.6139 46.92 18.8503 46.6582 21.7684 46.44C24.6865 46.2 28.3074 46.0036 30.1605 45.6545C32.0349 45.3055 32.1201 44.7818 32.0349 39.6109C31.9284 34.44 31.6302 24.5999 31.545 17.6617C31.4811 10.7453 31.6302 6.73078 31.4811 4.37441C31.332 1.99622 30.8847 1.29804 30.3096 0.752583ZM90.8647 2.86895C91.4611 2.49804 92.6751 2.41077 93.4632 2.54168C94.2726 2.67259 94.656 2.99986 95.3589 3.69805C96.0405 4.41805 97.0203 5.50896 97.5102 6.33806C98.0214 7.18897 98.0427 7.75624 97.9788 11.2035C97.9362 14.6508 97.7871 20.9345 97.7232 25.8436C97.638 30.7527 97.638 34.2654 97.5954 36.3163C97.5741 38.3891 97.5315 39.0218 97.425 39.48C97.3185 39.9382 97.1694 40.2218 96.7221 40.92C96.2535 41.5964 95.4867 42.6873 95.0181 43.2764C94.5282 43.8436 94.3578 43.9091 93.6762 43.9309C93.0159 43.9527 91.8658 43.9309 91.2694 43.8655C90.673 43.8218 90.6304 43.7127 90.6091 42.7745C90.6091 41.8145 90.6091 40.0036 90.5665 36.36C90.5026 32.7163 90.4174 27.2618 90.3748 21.6545C90.3109 16.069 90.2896 10.3526 90.2683 7.14533C90.2683 3.93805 90.2683 3.23986 90.8647 2.86895ZM56.1461 13.9744C56.2526 19.1672 56.5082 28.1345 56.5934 33.0218C56.6999 37.8873 56.6573 38.6509 56.8916 39.6982C57.1472 40.7236 57.6797 42.0545 58.2761 42.7309C58.8725 43.4291 59.5328 43.4727 60.9386 43.5382C62.3443 43.6255 64.5169 43.7127 65.9866 43.6255C67.4563 43.5164 68.2018 43.2109 68.6917 42.6218C69.1816 42.0545 69.4372 41.1818 69.565 35.3127C69.6715 29.4654 69.6714 18.5999 69.6289 12.8617C69.5863 7.12351 69.4798 6.5126 69.0538 5.50896C68.6491 4.4835 67.9036 3.06532 67.1581 2.36713C66.4126 1.64713 65.6671 1.64713 64.2187 1.66895C62.7916 1.71259 60.6617 1.75622 59.5328 1.88713C58.3826 1.99622 58.2335 2.21441 57.7862 2.69441C57.3602 3.19623 56.6147 3.95987 56.2952 4.57078C55.9757 5.18169 56.0609 5.61805 56.0822 6.53442C56.1035 7.42897 56.0609 8.80352 56.1461 13.9744Z" fill="#EF7F1A" stroke="#EF7F1A"/>
</g>
<defs>
<clipPath id="clip0_1_59">
<rect width="98" height="48" fill="white"/>
</clipPath>
</defs>
</svg>
